<?xml version="1.0" encoding="utf-8"?>
<svg version="1.1" id="Layer_1" xmlns="http://www.w3.org/2000/svg" xmlns:xlink="http://www.w3.org/1999/xlink" x="0px" y="0px"
	 viewBox="0 0 471.4 42.9" style="enable-background:new 0 0 471.4 42.9;" xml:space="preserve">
<style type="text/css">
	.st0{fill:#A6A8AA;}
	.st1{fill:#5AB4AC;}
</style>
<g>
	<path class="st0" d="M245.3,41.3h6V3c0-0.7-0.6-1.3-1.3-1.3h-6v38.2C244,40.7,244.6,41.3,245.3,41.3"/>
	<path class="st0" d="M201,41.3h6V11.7c0-0.7-0.6-1.3-1.3-1.3h-6v29.5C199.6,40.7,200.2,41.3,201,41.3"/>
	<path class="st0" d="M178.6,29V3.1c0-0.7-0.6-1.3-1.3-1.3h-6v27.3c0,7.4,4.2,12.2,12.1,12.2h11.7v-5.9c0-0.7-0.6-1.3-1.3-1.3h-10.3
		C180,34.1,178.6,32.6,178.6,29"/>
	<path class="st0" d="M315.1,23.5h-13.3v-7.9c0-4.1,2.5-6.6,6.6-6.6c4.2,0,6.7,2.5,6.7,6.6V23.5z M308.4,1.7c-3.9,0-7.5,1.4-10.1,4
		c-2.5,2.5-3.9,6.1-3.9,10V40c0,0.7,0.6,1.3,1.3,1.3h6V30.5h13.3V40c0,0.7,0.6,1.3,1.3,1.3h6V15.7c0-4-1.4-7.5-3.9-10
		C315.9,3.1,312.4,1.7,308.4,1.7"/>
	<path class="st0" d="M274.3,8.3c4,0,7.2,2.2,9,5.2c0.3,0.5,0.8,0.8,1.4,0.8h6.9c-2.4-7.8-8.7-12.6-17.3-12.6
		c-10.3,0-18.4,8.7-18.4,19.8c0,11.1,8.1,19.8,18.4,19.8c8.4,0,14.8-5,17.3-12.7h-6.8c-0.6,0-1.1,0.3-1.4,0.8c-1.8,3-5,5.3-9,5.3
		c-6.2,0-11.2-6-11.2-13.3C263.1,14.3,268,8.3,274.3,8.3"/>
	<path class="st0" d="M225.5,1.7c-4,0-7.5,1.4-10.1,4c-2.5,2.5-3.9,6.1-3.9,10V40c0,0.7,0.6,1.3,1.3,1.3h6V15.5
		c0-3.5,2.7-6.5,6.2-6.6c4.4-0.2,7.1,2.4,7.1,6.6V40c0,0.7,0.6,1.3,1.3,1.3h6V15.7c0-4-1.4-7.5-3.9-10C233,3.1,229.5,1.7,225.5,1.7"
		/>
	<path class="st1" d="M19.4,36.9c-7.9,0-14.3-6.7-14.3-15.4c0-8.6,6.4-15.4,14.3-15.4c8,0,14.3,6.6,14.3,15.4
		C33.7,30.1,27.3,36.9,19.4,36.9 M19.4,1.7C9,1.7,0.5,10.4,0.5,21.5c0,11.1,8.5,19.9,18.9,19.9c10.4,0,18.9-8.8,18.9-19.9
		C38.3,10.2,30,1.7,19.4,1.7"/>
	<path class="st1" d="M93.5,6.1c5.8,0,9.9,3,12.1,7.3c0.3,0.6,0.9,0.9,1.5,0.9h3.8c-2.4-7.5-8.8-12.7-17.4-12.7
		c-10.4,0-18.9,8.9-18.9,19.8c0,11,8.4,19.8,18.9,19.8c8.2,0,14.9-5,17.4-12.7h-3.9c-0.6,0-1.2,0.4-1.5,0.9
		c-2.4,4.5-6.9,7.3-12.1,7.3c-7.8,0-14.3-7-14.3-15.4C79.3,13.1,85.7,6.1,93.5,6.1"/>
	<path class="st1" d="M56.6,1.7c-7.8-0.1-13.8,5.8-13.8,13.6V40c0,0.7,0.6,1.3,1.3,1.3h3.4V15.3c0-5.1,4-9,8.9-9
		c4.9,0,8.9,3.9,8.9,9V40c0,0.7,0.6,1.3,1.3,1.3h3.4V15.8C70.2,8.2,64.2,1.8,56.6,1.7"/>
	<path class="st0" d="M150.8,1.9c-2.4,0-4.7,0.5-6.8,1.3c1.8,0.8,4.4,2.8,5.8,5.4c0.3,0,0.7-0.1,1-0.1c4,0,7.1,2.1,8.9,5.1
		c0.3,0.5,0.8,0.8,1.4,0.8h6.8C165.6,6.7,159.3,1.9,150.8,1.9"/>
	<path class="st0" d="M151,34.8c-6.2,0-11.1-6-11.1-13.2c0-2.8,0.8-5.4,2.1-7.6c-0.7-0.8-2.7-2.8-5.7-4.3c-2.3,3.3-3.7,7.4-3.7,11.9
		c0,11.1,8,19.7,18.3,19.7c8.4,0,14.8-5,17.2-12.7h-6.8c-0.6,0-1.1,0.3-1.4,0.8C158.2,32.5,154.9,34.8,151,34.8"/>
	<path class="st1" d="M132.6,1.9c-10.4,0-18.8,8.7-18.8,19.7c0,11.1,8.4,19.8,18.8,19.8c2.2,0,4.3-0.4,6.2-1.1
		c-1.5-1-3.4-2.5-4.3-3.5c-0.6,0.1-1.3,0.2-1.9,0.2c-7.8,0-14.2-6.7-14.2-15.3c0-8.6,6.4-15.3,14.2-15.3c8,0,14.2,6.6,14.2,15.3
		c0,2.8-0.7,5.4-1.9,7.6c1.2,1.1,2.8,2,3.8,2.5c1.7-3,2.7-6.4,2.7-10.2C151.4,10.4,143.1,1.9,132.6,1.9"/>
	<path class="st0" d="M199.6,8.4c0.1-1.6,0.7-6.6,7.3-6.6v5.2c0,0.7-0.6,1.3-1.3,1.3H199.6z"/>
	<path class="st0" d="M349.7,8.8l0-5.9c0-0.7-0.5-1.2-1.2-1.2h-2.6c-5.5,0.1-8.6,1.3-10.6,3.9c-2.6,3.3-3.5,8.3-0.3,15.9
		c2.7,6.3,2,9,0.6,10.6c-1.5,1.7-4.7,2.2-7.6,2.2h-1.1c-0.7,0-1.2,0.5-1.2,1.2l0,5.9l3.9,0c5.7,0.1,10.4-2,12.7-4.6
		c4-4.3,2.9-9.6,0.5-15.2c-2.6-6.2-2.5-9.1-1.1-10.8C342.8,9.4,345.3,8.8,349.7,8.8"/>
	<path class="st1" d="M365.4,20.2c-3.3,2.2-5.1,5.2-5.1,8.3c0,4.9,4.1,9.1,9.5,9.1c3,0,5.6-1.2,7.5-3L365.4,20.2z M380.2,38.1
		c-2.7,2.5-6.4,3.9-10.5,3.9c-7.8,0-14.2-6.1-14.2-13.6c0-2.9,1.1-5.7,3-8.1c1.1-1.3,2.5-2.5,4-3.6c-1.2-1.6-2.2-3.6-2.2-6.3
		c0-4.9,4-8.7,9.1-8.7c5,0,8.7,3.6,8.7,8.6l-4.7,0.1c0-2.4-1.4-4.3-4-4.3c-2.2,0-4.4,1.6-4.4,4.2c0,1.7,0.7,3.1,1.9,4.5l12.7,15.4
		c0.2-0.8,0.3-1.6,0.3-2.3v-4.7h4.7v4.9c0,2.3-0.6,4.4-1.5,6.3l5.8,7h-6.1L380.2,38.1z"/>
	<path class="st1" d="M411.1,42c-10.6,0-19.2-9-19.2-20.2c0-11.1,8.6-20.1,19.2-20.1c8.8,0,15.3,5.2,17.7,12.9h-5
		c-2.1-4.9-6.5-8.4-12.8-8.4c-8,0-14.5,7.1-14.5,15.6c0,8.5,6.5,15.6,14.5,15.6c5.7,0,10.4-3.2,12.8-8.4h5
		C426.2,37,419.4,42,411.1,42"/>
	<path class="st1" d="M466.1,21.9c0-8.9-6.4-15.6-14.5-15.6c-8,0-14.5,6.9-14.5,15.6c0,8.8,6.5,15.6,14.5,15.6
		C459.6,37.5,466.1,30.6,466.1,21.9 M470.8,21.9c0,11.3-8.6,20.2-19.2,20.2c-10.6,0-19.2-8.9-19.2-20.2c0-11.3,8.6-20.1,19.2-20.1
		C462.4,1.7,470.8,10.4,470.8,21.9"/>
</g>
</svg>